PathFileType	4	(X/Y/Z)	C:\Users\dbl\Desktop\20210112\20210112\bx_n_5_1801.trc
DataRate	CameraRate	NumFrames	NumMarkers	Units	OrigDataRate	OrigDataStartFrame	OrigNumFrames
50.00	50.00	       4	43	mm	50.00	173	       460
Frame#	Time	Top.Head			R.Acromium			L.Acromium			Sternum			R.ASIS			L.ASIS			V.Sacral			R.Thigh.Upper			R.Thigh.Front			R.Thigh.Rear			R.Knee.Lat			R.Knee.Med			R.Shank.Upper			R.Shank.Front			R.Shank.Rear			R.Ankle.Lat			R.Midfoot.Lat			R.Toe.Lat			R.Toe.Tip			R.Toe.Med			R.Ankle.Med			R.Midfoot.Sup			R.Heel			L.Thigh.Upper			L.Thigh.Front			L.Thigh.Rear			L.Knee.Lat			L.Knee.Med			L.Shank.Upper			L.Shank.Front			L.Shank.Rear			L.Ankle.Lat			L.Midfoot.Lat			L.Toe.Lat			L.Toe.Tip			L.Toe.Med			L.Ankle.Med			L.Midfoot.Sup			L.Heel			origin1 front left			origin2 front right			origin 3 back right			origin 4 back leftt			
		X1	Y1	Z1	X2	Y2	Z2	X3	Y3	Z3	X4	Y4	Z4	X5	Y5	Z5	X6	Y6	Z6	X7	Y7	Z7	X8	Y8	Z8	X9	Y9	Z9	X10	Y10	Z10	X11	Y11	Z11	X12	Y12	Z12	X13	Y13	Z13	X14	Y14	Z14	X15	Y15	Z15	X16	Y16	Z16	X17	Y17	Z17	X18	Y18	Z18	X19	Y19	Z19	X20	Y20	Z20	X21	Y21	Z21	X22	Y22	Z22	X23	Y23	Z23	X24	Y24	Z24	X25	Y25	Z25	X26	Y26	Z26	X27	Y27	Z27	X28	Y28	Z28	X29	Y29	Z29	X30	Y30	Z30	X31	Y31	Z31	X32	Y32	Z32	X33	Y33	Z33	X34	Y34	Z34	X35	Y35	Z35	X36	Y36	Z36	X37	Y37	Z37	X38	Y38	Z38	X39	Y39	Z39	X40	Y40	Z40	X41	Y41	Z41	X42	Y42	Z42	X43	Y43	Z43	

173	3.440	-752.67883	65.39572	1851.88391	-733.67065	-103.17682	1545.75000	-734.72949	250.23282	1546.45276	-626.82397	71.44933	1362.63928	-625.10620	-41.53988	1080.16931	-647.69952	214.84247	1077.85986	-834.74585	58.31754	1054.12927	-685.13324	-97.91535	876.42175	-609.04297	-30.56724	810.55981	-705.90863	-82.26872	761.27374	-723.97198	-54.53080	616.87292	-702.89978	54.62717	579.47467	-728.85468	-50.28259	568.67993	-677.00238	-3.79301	522.76660	-772.22766	-58.74589	487.06625	-762.04236	-24.85015	204.18428	-651.45563	-71.64799	158.12189	-608.18488	-76.90630	156.79582	-552.89520	-28.75138	165.39191	-600.49426	21.69640	172.78392	-718.80682	62.52573	219.48859	-674.64917	49.42772	164.26170	-793.95398	36.96631	174.41653	-728.10162	262.13449	884.01721	-622.48792	211.20297	804.75995	-727.35242	250.24599	751.66504	-747.94702	231.97986	646.88666	-694.64679	132.47276	582.98480	-741.88922	231.66252	580.31641	-683.63647	195.47354	539.71582	-779.47937	242.52667	505.08234	-768.87390	226.38977	206.11923	-661.26282	299.13150	156.79443	-624.85052	307.38205	158.09062	-556.38483	256.48813	164.96182	-593.19476	221.73309	175.86861	-710.24402	155.07028	217.00169	-674.64020	174.58253	159.80789	-794.80920	176.79872	184.75276	-528.26385	304.25876	146.40677	-518.20654	-72.90284	143.08128	-875.86194	-78.71152	141.18356	-882.54266	296.14017	144.67287	
174	3.460	-755.80945	65.35765	1851.71619	-735.82745	-103.18004	1545.57202	-736.75519	250.08447	1546.77026	-627.79169	71.52356	1362.98242	-623.53632	-40.80718	1080.53857	-647.13153	215.06584	1077.71399	-834.17090	58.61721	1053.86011	-684.44678	-97.83366	876.51111	-608.60150	-30.26512	810.55676	-705.39404	-82.27895	761.29413	-723.94318	-54.68322	616.82526	-703.01581	54.37628	579.43561	-728.75256	-50.63335	568.75171	-677.10101	-4.04839	522.76245	-772.29498	-59.09527	487.13199	-762.19562	-25.16672	204.18048	-651.49847	-71.72571	158.10619	-608.18951	-76.91724	156.80283	-553.02264	-28.85391	165.38329	-600.69916	21.52555	173.14487	-718.94550	62.27581	219.62569	-674.89941	49.37033	164.56604	-794.17065	36.71119	174.49881	-727.61749	262.40405	884.03156	-622.10425	211.38391	804.66077	-727.10260	250.54529	751.72656	-747.94666	232.22581	647.06390	-694.85327	132.73047	583.05682	-741.95721	231.89270	580.43799	-683.77881	195.61555	539.79285	-779.55664	242.73210	505.04059	-768.89044	226.48492	206.16100	-661.24969	299.13528	156.80470	-624.82501	307.35980	158.10960	-556.39813	256.50528	164.97594	-593.27063	221.83195	175.87228	-710.22156	155.13507	217.10173	-674.61615	174.59152	159.86653	-794.83197	176.81042	184.74667	-528.25879	304.26733	146.41074	-518.19202	-72.90515	143.07976	-875.87476	-78.71365	141.19032	-882.54327	296.15802	144.69164	
175	3.480	-758.65332	65.27877	1851.54150	-737.80908	-103.15392	1545.35901	-738.56073	249.94196	1547.10657	-628.70447	71.60120	1363.27759	-622.06610	-40.02608	1080.84082	-646.61200	215.40240	1077.58643	-833.68201	59.03253	1053.61121	-683.88434	-97.64806	876.59637	-608.18640	-29.95262	810.60461	-704.93176	-82.18427	761.31537	-723.72760	-54.74720	616.83240	-702.91388	54.29619	579.37653	-728.56348	-50.83268	568.82098	-677.05316	-4.15668	522.74292	-772.24109	-59.27581	487.20807	-762.30719	-25.42261	204.21498	-651.51611	-71.76392	158.11116	-608.18036	-76.92479	156.80096	-553.10480	-28.93701	165.35413	-600.86511	21.42770	173.45877	-719.04486	62.04989	219.74190	-675.09894	49.30124	164.88564	-794.30310	36.48630	174.56409	-727.15930	262.70743	884.01801	-621.76923	211.60884	804.56110	-726.84723	250.87553	751.77905	-747.87903	232.46088	647.18994	-695.00800	133.02042	583.12872	-741.98291	232.09198	580.52917	-683.85681	195.80032	539.88611	-779.56213	242.97885	505.00931	-768.89124	226.55917	206.19633	-661.23505	299.14111	156.81892	-624.79266	307.32935	158.11931	-556.41431	256.51270	164.98849	-593.32513	221.90044	175.85793	-710.19983	155.17570	217.19247	-674.60651	174.59612	159.89647	-794.84595	176.82149	184.74089	-528.25519	304.28192	146.42349	-518.17932	-72.89135	143.09254	-875.88397	-78.71655	141.19830	-882.54614	296.17203	144.70740	
176	3.500	-761.20654	65.16405	1851.36340	-739.60858	-103.09734	1545.11670	-740.15192	249.80910	1547.45361	-629.55792	71.68934	1363.51282	-620.69592	-39.20049	1081.07813	-646.13361	215.85071	1077.48730	-833.25861	59.55479	1053.38525	-683.46436	-97.36940	876.67297	-607.82495	-29.62405	810.67212	-704.56470	-81.99461	761.34778	-723.41205	-54.74548	616.91071	-702.70648	54.36945	579.30286	-728.37921	-50.90342	568.89404	-676.93884	-4.14332	522.72577	-772.14124	-59.31052	487.28729	-762.38690	-25.61495	204.26289	-651.51587	-71.77123	158.11548	-608.16437	-76.92573	156.79263	-553.15717	-28.99388	165.31807	-600.99060	21.38920	173.72415	-719.11810	61.84171	219.83224	-675.24042	49.20462	165.19975	-794.37030	36.29279	174.58141	-726.71289	263.04156	883.98254	-621.47424	211.88853	804.45013	-726.58392	251.22485	751.82544	-747.78369	232.68233	647.26178	-695.13867	133.31845	583.19421	-742.00775	232.28148	580.58582	-683.90149	196.03421	539.98999	-779.53961	243.26437	505.00046	-768.88342	226.61032	206.21213	-661.22339	299.14786	156.83086	-624.76074	307.30017	158.11629	-556.42731	256.51321	164.99913	-593.36292	221.95012	175.84222	-710.19147	155.19814	217.26936	-674.60846	174.59921	159.90675	-794.85187	176.83693	184.73608	-528.25446	304.29834	146.44180	-518.17084	-72.86349	143.11559	-875.88940	-78.71915	141.20488	-882.54724	296.17715	144.71620	
